<svg width="300" height="176" viewBox="0 0 300 176" fill="none" xmlns="http://www.w3.org/2000/svg">
<path d="M280.102 19.8218C268.508 8.23066 253.077 1.27675 236.713 0.268782C220.35 -0.739191 204.182 4.26826 191.253 14.3488C179.447 5.17624 164.922 0.195675 149.971 0.192778C135.02 0.189881 120.494 5.16483 108.684 14.3328C95.2145 3.76403 78.2195 -1.26535 61.168 0.271422C44.1166 1.80818 28.2947 9.79521 16.9324 22.6019C5.57011 35.4086 -0.475694 52.0691 0.0292642 69.1822C0.534223 86.2953 7.55186 102.571 19.6495 114.685L60.9645 156.006C60.9965 156.037 61.0285 156.067 61.0645 156.099C61.1005 156.131 61.1105 156.146 61.1335 156.169C61.1765 156.212 61.2225 156.251 61.2655 156.294C61.9222 156.944 62.5888 157.577 63.2655 158.194C63.6135 158.513 63.9655 158.822 64.3195 159.133C64.6068 159.383 64.8955 159.631 65.1855 159.876C76.9627 169.855 91.8156 175.478 107.249 175.798C122.683 176.119 137.756 171.119 149.938 161.637C162.867 171.717 179.035 176.725 195.398 175.717C211.762 174.709 227.193 167.755 238.787 156.164L280.103 114.849C292.686 102.238 299.752 85.15 299.752 67.3351C299.752 49.5202 292.685 32.4329 280.102 19.8218ZM149.958 17.6938C159.781 17.6875 169.385 20.5956 177.554 26.0499C185.724 31.5042 192.091 39.2595 195.851 48.3343C199.611 57.4091 200.594 67.3954 198.676 77.0291C196.758 86.6629 192.025 95.5111 185.076 102.454L149.958 137.571L114.839 102.454C107.89 95.5111 103.157 86.6628 101.239 77.0289C99.3204 67.395 100.304 57.4087 104.064 48.3339C107.824 39.259 114.192 31.5037 122.361 26.0495C130.531 20.5953 140.135 17.6873 149.958 17.6938ZM58.9755 108.652C58.9576 102.127 60.2342 95.6636 62.7312 89.6356C65.2282 83.6076 68.8961 78.1347 73.5225 73.5338L82.8695 64.1868C82.417 73.5296 83.9247 82.8638 87.2958 91.589C90.6669 100.314 95.8268 108.237 102.444 114.849L136.844 149.249C129.424 154.446 120.72 157.507 111.68 158.097C102.641 158.687 93.6118 156.785 85.5791 152.597C77.5464 148.408 70.8175 142.096 66.126 134.346C61.4346 126.597 58.9605 117.708 58.9735 108.649L58.9755 108.652ZM32.0425 102.289C23.252 93.5004 18.0771 81.7348 17.54 69.3163C17.0029 56.8978 21.1426 44.7293 29.1414 35.2148C37.1402 25.7002 48.4165 19.5314 60.7426 17.9269C73.0688 16.3224 85.5485 19.399 95.7165 26.5488L61.1275 61.1378C54.8684 67.3629 49.9062 74.7677 46.5281 82.9235C43.1501 91.0793 41.4232 99.8241 41.4475 108.652C41.4475 109.694 41.4718 110.732 41.5205 111.767L32.0425 102.289ZM191.276 158.315C181.129 158.339 171.222 155.231 162.907 149.415L197.476 114.849C204.093 108.237 209.252 100.314 212.623 91.5888C215.994 82.8637 217.502 73.5296 217.05 64.1868L226.397 73.5338C233.343 80.4797 238.072 89.3292 239.988 98.9632C241.905 108.597 240.921 118.583 237.161 127.658C233.402 136.733 227.036 144.489 218.869 149.946C210.701 155.403 201.099 158.315 191.276 158.315ZM267.709 102.454L258.396 111.767C258.443 110.733 258.466 109.695 258.469 108.652C258.492 99.8241 256.766 91.0792 253.388 82.9234C250.01 74.7676 245.047 67.3629 238.788 61.1378L204.223 26.5718C214.409 19.4836 226.88 16.4658 239.18 18.1125C251.48 19.7591 262.717 25.951 270.681 35.4689C278.644 44.9868 282.755 57.141 282.205 69.5386C281.655 81.9361 276.484 93.6785 267.709 102.454Z" fill="#292C44"/>
</svg>
